<svg width="26" height="26" viewBox="0 0 26 26" fill="none" xmlns="http://www.w3.org/2000/svg">
<mask id="mask0_38_258" style="mask-type:alpha" maskUnits="userSpaceOnUse" x="0" y="0" width="26" height="26">
<path d="M12.7996 0C5.73036 0 0 5.76003 0 12.8658C0 19.3155 4.72688 24.6419 10.886 25.5721V16.2753H7.71942V12.8928H10.886V10.6426C10.886 6.91667 12.692 5.28142 15.7729 5.28142C17.2487 5.28142 18.0282 5.39078 18.3981 5.44096V8.39238H16.2964C14.9883 8.39238 14.5313 9.63907 14.5313 11.044V12.8928H18.3648L17.8451 16.2753H14.5326V25.5991C20.7801 24.7487 25.5991 19.3785 25.5991 12.8658C25.5991 5.76003 19.8688 0 12.7996 0Z" fill="white"/>
</mask>
<g mask="url(#mask0_38_258)">
<rect x="-5.68848" y="-1.62305" width="35.3512" height="28.8498" fill="white"/>
</g>
</svg>
