<svg width="47" height="41" viewBox="0 0 47 41" fill="none" xmlns="http://www.w3.org/2000/svg">
<path d="M36.6899 28.1649C43.7046 26.3387 48.195 20.2635 46.7194 14.5954C45.3146 9.19915 39.0089 6.1174 32.3543 7.40994C32.6861 7.77109 33.0021 8.15221 33.301 8.55169C39.2019 7.97517 44.3636 10.4406 45.4736 14.7045C46.7602 19.6466 41.7961 24.9327 34.7815 26.7588C34.4493 27.4242 34.0765 28.0577 33.6671 28.6546C34.6613 28.5901 35.6742 28.4293 36.6899 28.1649Z" fill="#4E3E2D"/>
<path fill-rule="evenodd" clip-rule="evenodd" d="M12.1986 26.816C12.2001 26.8191 12.2017 26.8222 12.2032 26.8253C12.2079 26.8345 12.2125 26.8436 12.2172 26.8528C12.211 26.8406 12.2047 26.8283 12.1986 26.816Z" fill="#4E3E2D"/>
<path d="M0.280604 14.5064C-1.19497 20.1745 3.29537 26.2498 10.3101 28.0759C11.2868 28.3302 12.261 28.4887 13.2184 28.5578C12.8539 28.0177 12.5192 27.4482 12.2172 26.8528L12.2032 26.8253L12.1986 26.816C12.1967 26.8123 12.1948 26.8086 12.193 26.8049C5.1783 24.9788 0.239841 19.5577 1.52641 14.6156C2.63752 10.3475 7.80814 7.88144 13.7161 8.4644C14.0188 8.06593 14.3386 7.6861 14.6742 7.32653C8.0091 6.01963 1.68741 9.10248 0.280604 14.5064Z" fill="#4E3E2D"/>
<path d="M23.4757 30.5815C27.328 30.5815 30.6618 27.9288 32.2673 24.0688C30.6618 22.6422 27.328 21.6619 23.4757 21.6619C19.6233 21.6619 16.2895 22.6422 14.684 24.0688C16.2895 27.9288 19.6233 30.5815 23.4757 30.5815Z" fill="#F0BB12"/>
<path fill-rule="evenodd" clip-rule="evenodd" d="M13.2184 28.5578C15.1526 31.4239 17.9253 33.4615 21.0962 34.1493C21.8679 34.3167 22.6631 34.4042 23.4757 34.4042C24.2882 34.4042 25.0834 34.3167 25.8551 34.1493C28.9902 33.4692 31.736 31.4697 33.6671 28.6546C34.0765 28.0577 34.4493 27.4242 34.7815 26.7588C34.8213 26.6791 34.8605 26.5989 34.8991 26.5183C35.9819 24.2575 36.6002 21.6435 36.6002 18.8586C36.6002 14.9044 35.3538 11.2951 33.301 8.55169C33.0021 8.15221 32.6861 7.77109 32.3543 7.40994C31.7355 6.73623 31.0618 6.13201 30.3422 5.60773C29.3705 4.89984 28.3151 4.33768 27.1976 3.94696C26.0177 3.53441 24.7685 3.31299 23.4757 3.31299C22.1828 3.31299 20.9336 3.53441 19.7537 3.94696C18.6362 4.33769 17.5807 4.89986 16.6091 5.60778C16.5616 5.64233 16.5144 5.67722 16.4674 5.71246C15.8305 6.18982 15.2307 6.73032 14.6742 7.32653C14.3386 7.6861 14.0188 8.06593 13.7161 8.4644C11.6242 11.2183 10.3511 14.8624 10.3511 18.8586C10.3511 21.762 11.0231 24.4796 12.193 26.8049C12.1948 26.8086 12.1967 26.8123 12.1986 26.816L12.2032 26.8253L12.2172 26.8528C12.5192 27.4482 12.8539 28.0177 13.2184 28.5578ZM32.6724 22.9523C31.2825 21.3056 27.6892 20.1328 23.4757 20.1328C19.2621 20.1328 15.6689 21.3056 14.279 22.9523C13.8814 21.6779 13.6641 20.2985 13.6641 18.8586C13.6641 18.633 13.6694 18.409 13.68 18.1866C13.8728 15.8691 18.1799 14.0165 23.4757 14.0165C28.7714 14.0165 33.0785 15.8691 33.2714 18.1866C33.2756 18.2371 33.2778 18.2878 33.2781 18.3387L33.2781 18.3489C33.2842 18.5179 33.2872 18.6878 33.2872 18.8586C33.2872 20.2985 33.0699 21.6779 32.6724 22.9523ZM23.4757 30.5815C27.328 30.5815 30.6618 27.9288 32.2673 24.0688C30.6618 22.6422 27.328 21.6619 23.4757 21.6619C19.6233 21.6619 16.2895 22.6422 14.684 24.0688C16.2895 27.9288 19.6233 30.5815 23.4757 30.5815ZM32.9091 15.6247C31.7343 13.8132 27.9556 12.4874 23.4757 12.4874C18.9957 12.4874 15.2171 13.8132 14.0422 15.6247C15.2171 10.723 18.9957 7.13568 23.4757 7.13568C27.9556 7.13568 31.7343 10.723 32.9091 15.6247Z" fill="#4E3E2D"/>
<path fill-rule="evenodd" clip-rule="evenodd" d="M33.2714 18.1866C33.2738 18.2387 33.276 18.2909 33.2779 18.3432C33.2779 18.3417 33.2781 18.3402 33.2781 18.3387C33.2778 18.2878 33.2756 18.2371 33.2714 18.1866Z" fill="#F0BB12"/>
<path fill-rule="evenodd" clip-rule="evenodd" d="M33.2781 18.3387L33.2781 18.3489L33.2779 18.3432C33.276 18.2909 33.2738 18.2387 33.2714 18.1866C33.2756 18.2371 33.2778 18.2878 33.2781 18.3387Z" fill="#4E3E2D"/>
<path d="M23.4757 12.4874C27.9556 12.4874 31.7343 13.8132 32.9091 15.6247C31.7343 10.723 27.9556 7.13568 23.4757 7.13568C18.9957 7.13568 15.2171 10.723 14.0422 15.6247C15.2171 13.8132 18.9957 12.4874 23.4757 12.4874Z" fill="#F0BB12"/>
<path d="M23.4757 20.1328C27.6892 20.1328 31.2825 21.3056 32.6724 22.9523C33.0699 21.6779 33.2872 20.2985 33.2872 18.8586C33.2872 18.6878 33.2842 18.5179 33.2781 18.3489L33.2779 18.3432C33.276 18.2909 33.2738 18.2387 33.2714 18.1866C33.0785 15.8691 28.7714 14.0165 23.4757 14.0165C18.1799 14.0165 13.8728 15.8691 13.68 18.1866C13.6694 18.409 13.6641 18.633 13.6641 18.8586C13.6641 20.2985 13.8814 21.6779 14.279 22.9523C15.6689 21.3056 19.2621 20.1328 23.4757 20.1328Z" fill="#F0BB12"/>
<path d="M25.8551 34.1493C25.0834 34.3167 24.2882 34.4042 23.4757 34.4042C22.6631 34.4042 21.8679 34.3167 21.0962 34.1493C21.0962 34.1493 22.8087 40.1382 23.4757 40.1382C24.1426 40.1382 25.8551 34.1493 25.8551 34.1493Z" fill="#4E3E2D"/>
<path d="M10.2582 0.410022C10.5145 -0.700495 16.1197 0.410022 19.6875 4.16716C19.1701 4.3589 18.6413 4.58947 18.1111 4.86982C17.2665 3.85044 16.2746 2.76968 14.8634 2.19394C11.1682 1.17456 9.87596 2.06652 10.2582 0.410022Z" fill="#4E3E2D"/>
<path d="M36.7811 0.410022C36.5248 -0.700495 30.9197 0.410022 27.3518 4.16716C27.8692 4.3589 28.3981 4.58947 28.9282 4.86982C29.7729 3.85044 30.7648 2.76968 32.1759 2.19394C35.8712 1.17456 37.1634 2.06652 36.7811 0.410022Z" fill="#4E3E2D"/>
</svg>
