<svg width="27" height="26" viewBox="0 0 27 26" fill="none" xmlns="http://www.w3.org/2000/svg">
<mask id="mask0_38_261" style="mask-type:alpha" maskUnits="userSpaceOnUse" x="0" y="0" width="27" height="26">
<path d="M7.70999 0C3.78337 0 0.599121 3.18425 0.599121 7.11087V18.4883C0.599121 22.4149 3.78337 25.5991 7.70999 25.5991H19.0874C23.014 25.5991 26.1982 22.4149 26.1982 18.4883V7.11087C26.1982 3.18425 23.014 0 19.0874 0H7.70999ZM21.9317 2.84435C22.7168 2.84435 23.3539 3.48148 23.3539 4.26652C23.3539 5.05156 22.7168 5.68869 21.9317 5.68869C21.1467 5.68869 20.5096 5.05156 20.5096 4.26652C20.5096 3.48148 21.1467 2.84435 21.9317 2.84435ZM13.3987 5.68869C17.3253 5.68869 20.5096 8.87294 20.5096 12.7996C20.5096 16.7262 17.3253 19.9104 13.3987 19.9104C9.47206 19.9104 6.28782 16.7262 6.28782 12.7996C6.28782 8.87294 9.47206 5.68869 13.3987 5.68869ZM13.3987 8.53304C12.2671 8.53304 11.1819 8.98255 10.3818 9.78268C9.58167 10.5828 9.13216 11.668 9.13216 12.7996C9.13216 13.9311 9.58167 15.0163 10.3818 15.8164C11.1819 16.6166 12.2671 17.0661 13.3987 17.0661C14.5302 17.0661 15.6154 16.6166 16.4156 15.8164C17.2157 15.0163 17.6652 13.9311 17.6652 12.7996C17.6652 11.668 17.2157 10.5828 16.4156 9.78268C15.6154 8.98255 14.5302 8.53304 13.3987 8.53304Z" fill="white"/>
</mask>
<g mask="url(#mask0_38_261)">
<rect x="-2.09619" y="-1.34863" width="28.7429" height="28.7429" fill="white"/>
</g>
</svg>
